<?xml version="1.0" encoding="UTF-8" standalone="no"?>
<!-- Created with Inkscape (http://www.inkscape.org/) -->

<svg
   width="210mm"
   height="297mm"
   viewBox="0 0 210 297"
   version="1.1"
   id="svg5"
   inkscape:version="1.1.2 (0a00cf5339, 2022-02-04)"
   sodipodi:docname="nimacs_v2.svg"
   xmlns:inkscape="http://www.inkscape.org/namespaces/inkscape"
   xmlns:sodipodi="http://sodipodi.sourceforge.net/DTD/sodipodi-0.dtd"
   xmlns="http://www.w3.org/2000/svg"
   xmlns:svg="http://www.w3.org/2000/svg">
  <sodipodi:namedview
     id="namedview7"
     pagecolor="#ffffff"
     bordercolor="#666666"
     borderopacity="1.0"
     inkscape:pageshadow="2"
     inkscape:pageopacity="0.0"
     inkscape:pagecheckerboard="0"
     inkscape:document-units="mm"
     showgrid="false"
     inkscape:snap-text-baseline="false"
     inkscape:zoom="1.5536476"
     inkscape:cx="390.37166"
     inkscape:cy="381.36061"
     inkscape:window-width="1920"
     inkscape:window-height="1059"
     inkscape:window-x="0"
     inkscape:window-y="21"
     inkscape:window-maximized="1"
     inkscape:current-layer="layer1" />
  <defs
     id="defs2" />
  <g
     inkscape:label="Слой 1"
     inkscape:groupmode="layer"
     id="layer1">
    <text
       xml:space="preserve"
       style="font-style:normal;font-weight:normal;font-size:10.5833px;line-height:1.25;font-family:sans-serif;fill:#000000;fill-opacity:1;stroke:none;stroke-width:0.264583"
       x="71.766075"
       y="101.86311"
       id="text10515"><tspan
         sodipodi:role="line"
         id="tspan10513"
         style="stroke-width:0.264583"
         x="71.766075"
         y="101.86311" /></text>
    <g
       id="g1160">
      <g
         id="g28200"
         inkscape:export-filename="/home/nim/inkscape-draw/nimacs.png"
         inkscape:export-xdpi="95.875"
         inkscape:export-ydpi="95.875">
        <ellipse
           style="fill:#000000;fill-opacity:1;stroke:#ffffff;stroke-width:3.065;stroke-linecap:round;stroke-linejoin:bevel;stroke-miterlimit:4;stroke-dasharray:none;stroke-opacity:1;paint-order:stroke fill markers"
           id="path846"
           cx="105.80204"
           cy="98.772591"
           rx="43.546677"
           ry="44.737953" />
        <g
           id="g26225"
           transform="rotate(-90,107.25834,99.435918)"
           style="fill:#ffffff;fill-opacity:1">
          <path
             style="fill:#ffffff;fill-opacity:1;stroke:none;stroke-width:0.273652px;stroke-linecap:butt;stroke-linejoin:miter;stroke-opacity:1"
             d="m 114.7847,68.517039 -1.59571,8.548931 1.64093,51.90428 2.52697,8.05163 -6.2009,-5.01824 c 0,0 -3.05494,-53.35699 -1.78217,-55.88552 1.27279,-2.528537 1.89829,-4.627719 5.41088,-7.601081 z"
             id="path18125-7"
             sodipodi:nodetypes="cccccsc" />
          <path
             style="fill:#ffffff;fill-opacity:1;stroke:none;stroke-width:0.264583px;stroke-linecap:butt;stroke-linejoin:miter;stroke-opacity:1"
             d="m 77.178289,78.469322 -0.496406,16.400971 3.984544,16.952627 c 11.381567,18.14078 8.850031,13.02149 10.905735,17.01695 l 5.589951,3.55285 14.575987,3.97989 -13.414434,-8.35515 -9.917891,-10.64171 -5.024764,-11.62633 -2.678485,-13.185685 0.54848,-14.201706 4.960132,6.403206 6.642914,11.587882 c 7.610328,10.646863 15.890968,29.512313 22.457778,27.364673 l -0.75804,-5.56133 -17.886398,-42.289491 -5.71417,-8.892997 c 0,0 -0.179332,6.587512 0.13948,8.253564 0.31884,1.666049 18.491138,38.409754 18.491138,38.409754 l 3.52832,8.00548 C 104.53633,106.46505 95.226383,91.667878 87.293473,79.946188 80.253293,71.961209 79.544387,69.167185 76.487378,67.785773 Z"
             id="path17944"
             sodipodi:nodetypes="ccccccccccccccccccccccc" />
          <path
             style="fill:#ffffff;fill-opacity:1;stroke:none;stroke-width:0.264583px;stroke-linecap:butt;stroke-linejoin:miter;stroke-opacity:1"
             d="m 113.92155,116.45781 c 0,0 2.13937,-16.1874 2.13937,-18.24102 0,-2.05362 1.25936,-17.490954 1.25936,-19.327982 0,-1.837032 2.02562,-11.506711 2.02562,-11.506711 l 2.72793,8.861848 3.78415,28.210715 9.17521,-33.490695 3.25049,8.052581 c 0,0 -1.43884,25.397144 -1.17073,26.420514 0.26811,1.02337 0.1986,16.82273 -0.62202,16.17601 -0.82062,-0.64672 -2.69116,-23.64759 -2.69116,-23.64759 l 0.71068,-16.516141 -5.22449,26.059831 -3.04826,4.96277 -4.18226,-5.91205 -2.16602,-29.847878 c 0,0 -1.75035,35.435868 -1.92065,37.181318 -0.1703,1.74544 -2.65694,9.82446 -2.65694,9.82446 z"
             id="path24262"
             sodipodi:nodetypes="csscccccssccccccscc" />
        </g>
      </g>
      <ellipse
         style="fill:#d72626;fill-opacity:1;stroke:none;stroke-width:3.06501;stroke-linecap:round;stroke-linejoin:bevel;paint-order:stroke fill markers"
         id="path851"
         cx="74.383324"
         cy="97.01297"
         rx="3.5708461"
         ry="3.2065172" />
    </g>
  </g>
</svg>
