<?xml version="1.0" encoding="UTF-8" standalone="no"?>
<!-- Created with Inkscape (http://www.inkscape.org/) -->

<svg
   width="90.158356mm"
   height="92.540909mm"
   viewBox="0 0 90.158356 92.540909"
   version="1.1"
   id="svg5"
   inkscape:version="1.1.2 (0a00cf5339, 2022-02-04)"
   sodipodi:docname="nimacs_v5r.svg"
   xmlns:inkscape="http://www.inkscape.org/namespaces/inkscape"
   xmlns:sodipodi="http://sodipodi.sourceforge.net/DTD/sodipodi-0.dtd"
   xmlns="http://www.w3.org/2000/svg"
   xmlns:svg="http://www.w3.org/2000/svg">
  <sodipodi:namedview
     id="namedview7"
     pagecolor="#ffffff"
     bordercolor="#666666"
     borderopacity="1.0"
     inkscape:pageshadow="2"
     inkscape:pageopacity="0.0"
     inkscape:pagecheckerboard="0"
     inkscape:document-units="mm"
     showgrid="false"
     inkscape:snap-text-baseline="false"
     inkscape:zoom="2.1971895"
     inkscape:cx="140.17908"
     inkscape:cy="175.45141"
     inkscape:window-width="1904"
     inkscape:window-height="1022"
     inkscape:window-x="6"
     inkscape:window-y="48"
     inkscape:window-maximized="1"
     inkscape:current-layer="layer1"
     showguides="true"
     inkscape:guide-bbox="true"
     inkscape:snap-others="true"
     inkscape:snap-nodes="true"
     inkscape:snap-bbox="false">
    <sodipodi:guide
       position="-24.738903,45.309325"
       orientation="1,0"
       id="guide4726" />
  </sodipodi:namedview>
  <defs
     id="defs2" />
  <g
     inkscape:label="Слой 1"
     inkscape:groupmode="layer"
     id="layer1"
     transform="translate(-60.722863,-52.502137)">
    <text
       xml:space="preserve"
       style="font-style:normal;font-weight:normal;font-size:10.5833px;line-height:1.25;font-family:sans-serif;fill:#000000;fill-opacity:1;stroke:none;stroke-width:0.264583"
       x="71.766075"
       y="101.86311"
       id="text10515"><tspan
         sodipodi:role="line"
         id="tspan10513"
         style="stroke-width:0.264583"
         x="71.766075"
         y="101.86311" /></text>
    <ellipse
       style="fill:#000000;fill-opacity:1;stroke:#ffffff;stroke-width:3.065;stroke-linecap:round;stroke-linejoin:bevel;stroke-miterlimit:4;stroke-dasharray:none;stroke-opacity:1;paint-order:stroke fill markers"
       id="path846"
       cx="105.80204"
       cy="98.772591"
       rx="43.546677"
       ry="44.737953" />
    <path
       id="rect853-5-6"
       style="fill:#ffffff;stroke-width:3.6985;stroke-linecap:round;stroke-linejoin:bevel;paint-order:stroke fill markers"
       d="m 71.812523,120.38264 c 0,0 48.601027,13.01329 62.998587,4.48273 5.28378,-3.13072 7.44674,-14.64544 7.44674,-14.64544 -17.52488,17.51534 -41.60914,10.21251 -58.002439,10.78019 z"
       sodipodi:nodetypes="csccc" />
    <path
       id="rect853-3-6-5-9"
       style="fill:#ffffff;stroke-width:3.36514;stroke-linecap:round;stroke-linejoin:bevel;paint-order:stroke fill markers"
       d="m 71.80141,117.64352 c 4.852652,0.16253 17.930451,-4.58113 24.950995,-5.76926 l 20.149165,-5.44781 c 0,0 10.50965,2.8938 7.78603,3.89575 -6.21637,2.28688 -44.575242,11.57149 -52.88619,7.32132 z"
       sodipodi:nodetypes="cccsc" />
    <path
       id="path3497"
       style="fill:#ffffff;stroke-width:5.17197;stroke-linecap:round;stroke-linejoin:bevel;paint-order:stroke fill markers"
       d="m 71.812523,98.983008 c 0,0 49.707327,-4.88276 73.827097,0 8.74586,1.770492 -55.181615,3.517102 -55.181615,3.517102 l -5.267009,-0.54461 z"
       sodipodi:nodetypes="csccc" />
    <path
       id="path10071"
       style="fill:#ffffff;stroke-width:3.6985;stroke-linecap:round;stroke-linejoin:bevel;paint-order:stroke fill markers"
       d="m 125.8359,66.926674 c -19.74302,0.06116 -47.081371,7.381461 -47.081371,7.381461 l 16.170589,0.03824 c 14.341432,-2.382108 20.748682,-3.287051 32.591302,-0.867648 0.0337,-0.05672 0.0585,-0.09821 0.093,-0.156579 0.973,-1.573653 0.89735,-1.408617 1.55752,-2.83652 0.005,-0.03258 0.009,-0.06519 0.0145,-0.09767 0.0154,-0.09222 0.0679,-0.176741 0.0775,-0.269751 0.0348,-0.338562 -0.0341,-0.725231 -0.004,-1.067118 0.007,-0.683268 0.0561,-1.373133 -0.0186,-2.053105 -1.10268,-0.05056 -2.23639,-0.07492 -3.39979,-0.07131 z m 9.08265,8.487338 c -0.002,0.0053 -0.005,0.0097 -0.007,0.01498 0.0193,0.0068 0.0386,0.01328 0.0579,0.02016 -0.0141,-0.01355 -0.0313,-0.02516 -0.0512,-0.03514 z" />
    <path
       id="path10073"
       style="fill:#ffffff;stroke-width:2.49461;stroke-linecap:round;stroke-linejoin:bevel;paint-order:stroke fill markers"
       d="m 80.30532,91.428236 c 3.505931,-0.814678 11.960161,-6.72055 16.759285,-8.918319 L 110.4472,74.743081 c 0,0 8.08065,0.05567 6.32264,1.295684 -4.01246,2.830228 -29.697996,16.838229 -36.46452,15.389471 z"
       sodipodi:nodetypes="cccsc" />
    <path
       id="path2057"
       style="fill:#ffffff;stroke-width:2.21582;stroke-linecap:round;stroke-linejoin:bevel;paint-order:stroke fill markers"
       d="m 88.495783,93.537338 c 3.114122,-0.72363 10.623543,-5.96948 14.886327,-7.92164 l 11.88698,-6.89884 c 0,0 7.17759,0.0495 5.61605,1.15089 -3.56404,2.51393 -26.379035,14.95644 -32.389357,13.66959 z"
       sodipodi:nodetypes="cccsc" />
    <path
       sodipodi:type="star"
       style="fill:#830ef3;stroke-width:11.5843;stroke-linecap:round;stroke-linejoin:bevel;paint-order:stroke fill markers;fill-opacity:1"
       id="path4854"
       inkscape:flatsided="false"
       sodipodi:sides="5"
       sodipodi:cx="257.40298"
       sodipodi:cy="145.36485"
       sodipodi:r1="30.773556"
       sodipodi:r2="13.526394"
       sodipodi:arg1="-1.018006"
       sodipodi:arg2="-0.38968745"
       inkscape:rounded="0"
       inkscape:randomized="0"
       d="m 273.56107,119.17463 -3.64579,21.05156 17.38921,12.41269 -21.14783,3.03793 -6.43161,20.37387 -9.42429,-19.17402 -21.36417,0.17905 15.32331,-14.88813 -6.77218,-20.26321 18.89461,9.97265 z"
       transform="matrix(0.26458333,0,0,0.26458333,61.359384,48.489239)"
       inkscape:transform-center-x="-0.18985263"
       inkscape:transform-center-y="0.59472958" />
  </g>
</svg>
