<?xml version="1.0" encoding="UTF-8" standalone="no"?>
<!-- Created with Inkscape (http://www.inkscape.org/) -->

<svg
   width="100.1mm"
   height="100mm"
   viewBox="0 0 100.1 100"
   version="1.1"
   id="svg8124"
   inkscape:version="1.1.2 (0a00cf5339, 2022-02-04)"
   sodipodi:docname="nimacs-v6r.svg"
   xmlns:inkscape="http://www.inkscape.org/namespaces/inkscape"
   xmlns:sodipodi="http://sodipodi.sourceforge.net/DTD/sodipodi-0.dtd"
   xmlns="http://www.w3.org/2000/svg"
   xmlns:svg="http://www.w3.org/2000/svg">
  <sodipodi:namedview
     id="namedview8126"
     pagecolor="#c5a8cb"
     bordercolor="#666666"
     borderopacity="1.0"
     inkscape:pageshadow="2"
     inkscape:pageopacity="0"
     inkscape:pagecheckerboard="0"
     inkscape:document-units="mm"
     showgrid="false"
     showguides="true"
     inkscape:guide-bbox="true"
     inkscape:snap-nodes="true"
     inkscape:snap-bbox="false"
     inkscape:zoom="0.5"
     inkscape:cx="-252"
     inkscape:cy="93"
     inkscape:window-width="1904"
     inkscape:window-height="1022"
     inkscape:window-x="6"
     inkscape:window-y="48"
     inkscape:window-maximized="1"
     inkscape:current-layer="layer1">
    <sodipodi:guide
       position="2.3841859e-07,90.557811"
       orientation="-1,0"
       id="guide8207"
       inkscape:label=""
       inkscape:locked="false"
       inkscape:color="rgb(0,0,255)" />
    <sodipodi:guide
       position="100,91.587871"
       orientation="-1,0"
       id="guide8289"
       inkscape:label=""
       inkscape:locked="false"
       inkscape:color="rgb(0,0,255)" />
    <sodipodi:guide
       position="18.541041,100"
       orientation="0,1"
       id="guide8291"
       inkscape:label=""
       inkscape:locked="false"
       inkscape:color="rgb(0,0,255)" />
    <sodipodi:guide
       position="-33.305202,-7.5532025e-07"
       orientation="0,1"
       id="guide8293"
       inkscape:label=""
       inkscape:locked="false"
       inkscape:color="rgb(0,0,255)" />
  </sodipodi:namedview>
  <defs
     id="defs8121" />
  <g
     inkscape:label="Слой 1"
     inkscape:groupmode="layer"
     id="layer1">
    <g
       id="g19989">
      <ellipse
         style="fill:#000000;stroke:#ffffff;stroke-width:2.97535;stroke-linecap:round;stroke-linejoin:bevel;stroke-opacity:1;paint-order:stroke fill markers"
         id="path8317"
         cx="50.049999"
         cy="50"
         rx="48.562325"
         ry="48.512325" />
      <g
         id="g13122"
         transform="translate(-0.00428391,-0.13429642)">
        <path
           style="fill:none;fill-opacity:1;stroke:#ffffff;stroke-width:3.06501;stroke-linecap:round;stroke-linejoin:bevel;stroke-opacity:1;paint-order:stroke fill markers"
           id="path9750"
           transform="rotate(-90)"
           sodipodi:type="arc"
           sodipodi:arc-type="arc"
           sodipodi:open="true"
           sodipodi:start="0"
           sodipodi:end="3.1415927"
           sodipodi:ry="39.291798"
           sodipodi:rx="44.387428"
           sodipodi:cy="51.536789"
           sodipodi:cx="-50.05423"
           d="m -5.6668015,51.536789 a 44.387428,39.291798 0 0 1 -22.1937145,34.027695 44.387428,39.291798 0 0 1 -44.387429,-10e-7 44.387428,39.291798 0 0 1 -22.193713,-34.027694" />
        <path
           style="fill:none;fill-opacity:1;stroke:#ffffff;stroke-width:3.06501;stroke-linecap:round;stroke-linejoin:bevel;stroke-opacity:1;paint-order:stroke fill markers"
           id="path9750-3"
           sodipodi:type="arc"
           sodipodi:cx="-19.351601"
           sodipodi:cy="51.713356"
           sodipodi:rx="13.573034"
           sodipodi:ry="12.014864"
           sodipodi:start="0"
           sodipodi:end="3.1415927"
           sodipodi:arc-type="arc"
           transform="rotate(-90)"
           sodipodi:open="true"
           d="m -5.7785664,51.713356 a 13.573034,12.014864 0 0 1 -6.7865176,10.405178 13.573034,12.014864 0 0 1 -13.573034,-10e-7 13.573034,12.014864 0 0 1 -6.786517,-10.405177" />
        <path
           style="fill:none;fill-opacity:1;stroke:#ffffff;stroke-width:3.06501;stroke-linecap:round;stroke-linejoin:bevel;stroke-opacity:1;paint-order:stroke fill markers"
           id="path9750-3-6"
           sodipodi:type="arc"
           sodipodi:cx="65.285835"
           sodipodi:cy="32.958832"
           sodipodi:rx="13.573034"
           sodipodi:ry="12.014864"
           sodipodi:start="0"
           sodipodi:end="3.1415927"
           sodipodi:arc-type="arc"
           sodipodi:open="true"
           d="m 78.85887,32.958832 a 13.573034,12.014864 0 0 1 -6.786518,10.405177 13.573034,12.014864 0 0 1 -13.573034,0 13.573034,12.014864 0 0 1 -6.786517,-10.405177" />
        <path
           style="fill:none;fill-opacity:1;stroke:#ffffff;stroke-width:3.06501;stroke-linecap:round;stroke-linejoin:bevel;stroke-opacity:1;paint-order:stroke fill markers"
           id="path9750-3-6-5"
           sodipodi:type="arc"
           sodipodi:cx="-2.689878"
           sodipodi:cy="84.784302"
           sodipodi:rx="13.573034"
           sodipodi:ry="12.014864"
           sodipodi:start="0"
           sodipodi:end="3.1415927"
           sodipodi:arc-type="arc"
           sodipodi:open="true"
           transform="rotate(-60)"
           d="m 10.883156,84.784302 a 13.573034,12.014864 0 0 1 -6.786517,10.405177 13.573034,12.014864 0 0 1 -13.5730345,0 13.573034,12.014864 0 0 1 -6.7865165,-10.405177" />
      </g>
      <rect
         style="fill:#ffffff;fill-opacity:1;fill-rule:evenodd;stroke-width:0.244828"
         id="rect10329"
         width="3"
         height="32.725048"
         x="48.5"
         y="60"
         ry="1.7518293" />
      <path
         sodipodi:type="star"
         style="fill:#662aaa;fill-opacity:1;stroke:none;stroke-width:11.5843;stroke-linecap:round;stroke-linejoin:bevel;stroke-opacity:1;paint-order:stroke fill markers"
         id="path12792"
         inkscape:flatsided="false"
         sodipodi:sides="4"
         sodipodi:cx="119.29522"
         sodipodi:cy="246.4501"
         sodipodi:r1="39.616604"
         sodipodi:r2="11.906375"
         sodipodi:arg1="-1.1289279"
         sodipodi:arg2="-0.34352972"
         inkscape:rounded="0"
         inkscape:randomized="0"
         d="m 136.23644,210.63851 -5.73052,31.80138 24.6009,20.95143 -31.80138,-5.73051 -20.95144,24.60089 5.73051,-31.80138 -24.600888,-20.95143 31.801378,5.73051 z"
         transform="matrix(0.22859527,-0.10705479,0.10705479,0.22859527,-3.6539869,6.4337979)" />
      <path
         style="fill:none;fill-opacity:1;stroke:#ffffff;stroke-width:3.06501;stroke-linecap:round;stroke-linejoin:bevel;stroke-opacity:1;paint-order:stroke fill markers"
         id="path19884"
         transform="matrix(0,-1,-1,0,0,0)"
         sodipodi:type="arc"
         sodipodi:arc-type="arc"
         sodipodi:open="true"
         sodipodi:start="0"
         sodipodi:end="3.1415927"
         sodipodi:ry="39.291798"
         sodipodi:rx="44.387428"
         sodipodi:cy="-48.467491"
         sodipodi:cx="-49.919933"
         d="m -5.532505,-48.467491 a 44.387428,39.291798 0 0 1 -22.193715,34.027695 44.387428,39.291798 0 0 1 -44.387429,-1e-6 44.387428,39.291798 0 0 1 -22.193713,-34.027694" />
      <path
         style="fill:none;fill-opacity:1;stroke:#ffffff;stroke-width:3.06501;stroke-linecap:round;stroke-linejoin:bevel;stroke-opacity:1;paint-order:stroke fill markers"
         id="path19886"
         sodipodi:type="arc"
         sodipodi:cx="-19.217304"
         sodipodi:cy="-48.290924"
         sodipodi:rx="13.573034"
         sodipodi:ry="12.014864"
         sodipodi:start="0"
         sodipodi:end="3.1415927"
         sodipodi:arc-type="arc"
         transform="matrix(0,-1,-1,0,0,0)"
         sodipodi:open="true"
         d="m -5.6442699,-48.290924 a 13.573034,12.014864 0 0 1 -6.7865171,10.405177 13.573034,12.014864 0 0 1 -13.573035,0 13.573034,12.014864 0 0 1 -6.786517,-10.405177" />
      <path
         style="fill:none;fill-opacity:1;stroke:#ffffff;stroke-width:3.06501;stroke-linecap:round;stroke-linejoin:bevel;stroke-opacity:1;paint-order:stroke fill markers"
         id="path19888"
         sodipodi:type="arc"
         sodipodi:cx="-34.718445"
         sodipodi:cy="32.824535"
         sodipodi:rx="13.573034"
         sodipodi:ry="12.014864"
         sodipodi:start="0"
         sodipodi:end="3.1415927"
         sodipodi:arc-type="arc"
         sodipodi:open="true"
         d="m -21.145411,32.824535 a 13.573034,12.014864 0 0 1 -6.786517,10.405178 13.573034,12.014864 0 0 1 -13.573034,0 13.573034,12.014864 0 0 1 -6.786517,-10.405178"
         transform="scale(-1,1)" />
    </g>
  </g>
</svg>
